<?xml version="1.0" encoding="utf-8"?>
<!-- Generator: Adobe Illustrator 27.5.0, SVG Export Plug-In . SVG Version: 6.00 Build 0)  -->
<svg version="1.1" id="Layer_1" xmlns="http://www.w3.org/2000/svg" xmlns:xlink="http://www.w3.org/1999/xlink" x="0px" y="0px"
	 viewBox="0 0 500 350.004" style="enable-background:new 0 0 500 350.004;" xml:space="preserve">
<g>
	<rect style="fill:#28003F;" width="500" height="350.004"/>
	<g>
		<path style="fill:#C7EBEA;" d="M111.303,45.137c0.007,0.337-4.52,0.096-4.956,1.416c-0.656,1.986,8.266,6.567,7.955,7.165
			c-0.296,0.569-7.674-4.9-12.556-2.529c-4.779,2.321-4.8,11.007-6.217,10.856c-1.387-0.148-1.211-8.453-2.831-8.634
			c-1.112-0.124-2.481,3.642-2.753,3.526c-0.277-0.119,1.791-3.761,0.67-5.08c-1.51-1.776-7.719,1.939-8.586,0.677
			c-0.789-1.15,4.406-4.161,4.265-8.051c-0.191-5.294-10.25-8.99-9.955-9.587c0.398-0.805,12.841,5.04,14.246,2.915
			c0.881-1.334-2.888-5.361-2.343-5.837c0.452-0.395,2.669,2.693,4.535,2.308c3.575-0.737,3.729-13.778,4.422-13.748
			c0.728,0.031-1.302,14.37,3.932,16.986c3.508,1.753,8.883-2.596,9.754-1.355c0.792,1.128-5.549,5.569-4.553,7.641
			C107.058,45.319,111.296,44.81,111.303,45.137z"/>
		<path style="fill:#FF4C00;" d="M102.178,45.163c0.346,2.998,5.277,4.788,5.095,5.134c-0.191,0.364-4.857-3.051-7.906-1.593
			c-2.965,1.419-2.849,6.89-3.914,6.836c-0.92-0.047-0.298-4.765-2.712-6.151c-2.15-1.234-5.269,0.979-5.788,0.162
			c-0.515-0.809,2.774-2.627,2.686-5.069c-0.12-3.333-6.454-5.661-6.268-6.037c0.184-0.371,5.576,3.507,8.97,1.835
			c4.017-1.978,3.599-10.922,4.164-10.879c0.572,0.044-0.793,9.062,2.476,10.695c2.209,1.104,5.593-1.634,6.142-0.853
			C105.678,40.036,101.855,42.373,102.178,45.163z"/>
	</g>
	<g>
		<path style="fill:#00C4D4;" d="M392.426,42.22c-3.322,0.299-6.192-2.173-6.425-5.226c-0.208-2.721,1.721-5.35,4.595-6.01
			c0.634-6.318,8.527-8.623,12.39-3.49c-0.631-2.513,1.451-4.33,3.905-4.044c2.449-4.255,7.544-1.414,6.613,2.906
			c2.678-1.393,6.006-0.425,7.505,2.145c1.53,2.623,0.664,6.073-1.968,7.677c8.905,5.628,5.504,18.133-4.611,19.334
			c-4.334,8.127-15.796,7.54-18.902-1.3C389.81,53.159,387.945,45.904,392.426,42.22z"/>
		<path style="fill:#76CDDC;" d="M393.462,41.976c-3.518,0.378-6.453-2.236-6.574-5.185c-0.098-2.373,1.638-4.729,4.274-5.498
			c0.6-5.975,7.871-8.321,11.824-3.799c-0.631-2.513,1.451-4.33,3.905-4.044c2.449-4.255,7.544-1.414,6.613,2.906
			c2.678-1.393,6.006-0.425,7.505,2.145c1.53,2.623,0.664,6.073-1.968,7.677c3.811,2.308,4.549,7.358,0.499,9.83
			c1.97,4.103-3.07,7.995-6.54,5.022c0.165,4.607-4.68,7.652-8.758,5.489c-4.45,3.605-9.493-1.523-6.666-6.13
			C391.543,52.698,388.79,45.53,393.462,41.976z"/>
		<path style="fill:#C7EBEA;" d="M393.462,41.976c-3.232,0.132-5.672-2.574-5.427-5.23c0.207-2.249,2.32-4.242,5.001-4.307
			c-0.448-5.752,5.667-8.346,9.95-4.945c-0.811-2.697,1.814-4.25,4.222-3.221c1.921-3.647,6.72-1.78,6.297,2.083
			c5.476-0.786,8.998,5.31,5.074,9.482c2.003,1.779,2.046,4.6,0.778,5.928c-1.375,1.441-4.55,1.396-6.317-0.972
			c-2.11,1.811-5.154,1.631-6.593-0.884c0.065,2.337-1.685,4.334-4.115,4.431c5.53-1.535,9.25,3.646,7.557,7.269
			c-1.866,3.994-10.094,4.243-11.394-2.637C393.909,51.809,389.32,45.422,393.462,41.976z"/>
	</g>
	<g>
		<path style="fill:#00C4D4;" d="M236.667,40.973c-3.762-2.783-4.853-7.684-3.008-11.107c2.223-4.124,8.51-5.73,13.19-2.314
			c2.167-3.166,6.422-4.158,9.719-2.314c3.377,1.889,4.73,6.185,3.008,9.719c4.643,1.188,7.807,5.41,7.636,9.95
			c-0.189,5.012-4.4,9.264-9.719,9.487C246.498,63.625,230.301,55.606,236.667,40.973z"/>
		<path style="fill:#C7EBEA;" d="M237.755,38.972c-3.239-2.485-4.335-6.542-3.015-9.327c1.692-3.571,7.489-5.33,12.109-2.093
			c2.167-3.166,6.422-4.158,9.719-2.314c3.377,1.889,4.73,6.185,3.008,9.719c4.964,0.959,7.643,5.962,6.294,9.807
			c-1.144,3.26-5.101,5.451-9.179,4.478c-3.468,6.29-11.428,7.868-16.298,4.334C236.248,50.568,234.82,44.205,237.755,38.972z"/>
	</g>
	<g>
		<g>
			<path style="fill:#00C4D4;" d="M78.526,129.815c-2.263-1.441-2.83-4.441-1.463-6.436c1.445-2.108,4.693-2.579,6.832-0.71
				c0.903-5.344,6.303-8.431,11.3-5.846c4.414-5.616,12.215-5.876,16.082-1.992c2.972,2.984,3.535,8.33,0.959,12.786
				c6.688-0.866,11.477,5.937,6.764,11.485c3.594,5.355-1.997,11.786-7.795,9.148c3.137,3.525,1.811,8.268-2.014,10.702
				c2.022,5.162-4.686,8.942-7.897,4.268c-6.053,3.473-13.091-1.662-10.626-8.536c-3.918,4.18-10.511,1.966-11.359-3.605
				c-2.651,1.717-6.104,0.844-7.513-1.517c-1.501-2.515-0.391-6.228,2.714-7.556C65.761,138.642,70.246,129.336,78.526,129.815z"/>
		</g>
		<g>
			<path style="fill:#76CDDC;" d="M78.526,129.815c-4.245-0.9-6.661,4.405-2.407,6.409c-3.209,0.51-3.369,4.906,0.12,5.085
				c-0.101,3.894,3.092,6.735,6.105,6.454c2.337-0.218,4.476-2.308,4.927-5.124c0.297,3.73,3.824,6.343,7.489,5.518
				c-0.56-3.807,4.6-4.48,5.355-0.872c1.482-1.622,4.038-1.63,5.484-0.114c1.389,1.455,1.338,3.878-0.197,5.321
				c2.95,3.482,8.198-0.383,5.805-4.243c5.799,2.639,11.388-3.793,7.795-9.148c4.712-5.547-0.076-12.351-6.764-11.485
				c2.576-4.456,2.013-9.801-0.959-12.786c-3.867-3.883-11.668-3.623-16.082,1.992c-4.998-2.585-10.398,0.503-11.3,5.846
				c-2.139-1.869-5.388-1.398-6.832,0.71C75.696,125.374,76.263,128.374,78.526,129.815z"/>
		</g>
		<path style="fill:#C7EBEA;" d="M109.681,117.782c2.092,2.582,1.733,6.811-0.442,8.396c-2.707,1.974-7.951-0.35-9.28-3.977
			C97.493,115.468,106.012,113.254,109.681,117.782z"/>
		<path style="fill:#C7EBEA;" d="M87.144,125.441c-2.085-5.235,3.84-9.768,7.66-4.861c2.678-0.875,4.894,1.959,3.106,4.262
			c1.871,0.68,3.18,2.354,3.228,4.429c3.757-1.209,7.856-0.303,10.753,2.357c2.26-0.968,4.889,0.05,5.892,2.21
			c1.044,2.249-0.003,5.027-2.357,6.039c-6.715,6.896-18.072,3.281-17.971-6.923c-1.356,2.87-4.673,3.623-6.481,2.357
			c-1.408-0.986-1.996-3.261-1.112-5.371C87.32,130.372,85.582,127.487,87.144,125.441z"/>
		<path style="fill:#C7EBEA;" d="M81.516,140.176c-3.474-0.124-4.197,4.707-0.711,5.549c1.515,0.366,3.194-0.551,3.557-1.992
			C84.784,142.054,83.273,140.239,81.516,140.176z"/>
		<path style="fill:#C7EBEA;" d="M83.792,124.1c-0.777-1.153-2.546-1.848-3.414-1.138c-0.63,0.515-0.65,1.657-0.285,2.419
			C81.197,127.681,86.124,127.558,83.792,124.1z"/>
		<path style="fill:#C7EBEA;" d="M117.938,141.172c-0.593-0.182-1.009,0.993-2.703,2.276c-2.283,1.73-4.082,1.533-4.126,2.276
			c-0.089,1.499,5.701,3.545,7.256-0.996C118.864,143.27,118.638,141.387,117.938,141.172z"/>
		<path style="fill:#C7EBEA;" d="M78.467,131.993c-1.46,0.934-1.744,2.855-0.88,3.988c0.902,1.182,2.951,1.372,4.214,0.07
			c-0.184,2.023,1.881,3.444,3.699,2.561c-0.815,1.066,0.285,2.162,1.423,1.707c0.039,1.44,1.151,2.588,2.561,2.703
			c-0.44,2.16,2.471,3.114,3.13,0.854c0.585,1.148,2.073,0.882,2.407-0.285c1.699-0.301,2.153-2.125,1.136-3.407
			c0.622-0.018,1.177-0.372,1.42-0.909c1.131-2.503-3.903-3.492-4.429-0.114c0.313-1.823-1.687-3.139-3.237-2.114
			c-2.199,1.206-3.99-1.111-2.845-3.13c0.579-0.788,0.691-1.826,0.29-2.706c-0.429-0.939-1.376-1.55-2.424-1.562
			C82.635,127.355,78.754,128.754,78.467,131.993z"/>
		<path style="fill:#76CDDC;" d="M96.648,149.645c-0.134-0.993,0.478-1.846,1.193-1.994c0.837-0.174,1.904,0.6,1.937,1.813
			c2.915-2.251,6.304,1.901,3.535,4.32c1.507,0.192,2.44,1.662,2.106,2.924c-0.335,1.264-1.879,2.08-3.285,1.495
			c-0.503,3.697-5.407,4.476-7.016,1.11c-3.718-1.233-2.017-5.117,1.362-5.269c-1.529,0.147-2.741-1.054-2.723-2.25
			C93.774,150.566,95.089,149.38,96.648,149.645z"/>
		<path style="fill:#76CDDC;" d="M82.123,149.533c1.958-2.079,8.96,0.518,9.074,2.77c0.128,2.523-7.302,4.735-9.249,0.715
			C81.461,152.012,81.299,150.408,82.123,149.533z"/>
		<path style="fill:#76CDDC;" d="M74.291,145.044c-0.992-0.04-2.141,1.699-1.719,3.056c0.683,2.2,3.209,1.761,3.247-0.764
			C75.836,146.257,75.089,145.076,74.291,145.044z"/>
		<path style="fill:#76CDDC;" d="M106.003,160.433c-1.002-0.319-2.62,1.508-2.266,2.365c0.304,0.736,2.236,1.173,2.956,0.197
			C107.31,162.159,106.753,160.671,106.003,160.433z"/>
	</g>
	<g>
		<g>
			<path style="fill:#00C4D4;" d="M271.87,130.356c4.487-1.16,6.854-5.922,5.405-9.779c-1.307-3.479-5.462-5.538-9.416-4.265
				c-3.338-9.634-15.69-11.781-17.499-0.382c-1.98-8.067-12.637-9.053-15.475-0.956c-6.55-5.334-15.724,0.858-10.232,8.527
				c-5.508,3.137-2.798,10.092,3.097,9.582c-6.81,1.942-7.126,10.932-0.008,12.883c-3.388,1.448-4.599,5.5-2.961,8.244
				c1.538,2.577,5.305,3.529,8.197,1.656c-2.22,6.22,5.42,11.217,10.231,6.694c1.34,6.368,8.204,8.079,13.115,4.306
				c1.747,2.847,5.314,3.248,7.065,1.705c1.381-1.216,1.727-3.725,0.487-5.847c5.006-0.911,7.902-6.092,3.906-9.947
				c6.328,2.879,12.426-4.139,8.505-9.981C280.461,138.36,277.924,131.187,271.87,130.356z M256.948,145.759
				c-0.454,3.886-5.387,3.765-6.161,0.158c-0.931,3.277-5.724,2.358-5.371-1.027c3.576-1.747,1.732-7.011-2.134-6.215
				c0.325-2.007-1.813-3.498-3.584-2.5c1.286-0.842,1.067-2.732-0.522-3.054c-1.579-3.154,2.248-5.51,4.581-3.08
				c-0.195-2.379,2.6-3.258,3.982-1.422c1.058,4.395,7.162,4.085,7.877-0.322c-0.223,2.299,2.381,3.701,4.16,2.185
				c-2.722,3.399-0.386,8.224,3.937,8.3C259.444,138.195,255.712,141.34,256.948,145.759z"/>
		</g>
		<g>
			<path style="fill:#76CDDC;" d="M271.87,130.356c4.487-1.16,6.854-5.922,5.405-9.779c-1.307-3.479-5.462-5.538-9.416-4.265
				c-3.338-9.634-15.69-11.781-17.499-0.382c-1.98-8.067-12.637-9.053-15.475-0.956c-6.55-5.334-15.724,0.858-10.232,8.527
				c-5.508,3.137-2.798,10.092,3.097,9.582c-6.81,1.942-7.126,10.932-0.008,12.883c-2.436,1.635-3.309,4.698-2.247,7.047
				c1.26,2.786,5.037,4.112,8.141,2.395c-1.646,6.094,5.67,10.018,9.937,5.508c1.998,5.207,8.34,6.909,12.691,3.592
				c2.508,3.723,8.144,1.311,6.944-3.113c5.689,0.598,8.152-6.7,2.993-9.458c6.441,3.515,13.306-3.123,8.86-9.464
				C280.541,138.982,278.331,130.711,271.87,130.356z M257.392,152.227c-1.864-2.447-5.57-1.85-6.234,1.286
				c0.426-2.798-2.707-4.579-4.651-2.276c-2.099-2.368-5.339-0.705-5.326,2.241c0.567-4.305-3.049-7.259-7.2-6.617
				c5.679-0.437,7.12-7.807,1.642-9.971c-3.01,0.806-4.73-3.148-1.88-4.651c-1.969-2.017-0.057-5.227,2.671-4.156
				c3.748,0.679,7.113-1.641,8.031-5.237c2.066,3.797,7.023,4.49,9.78,0.983c-1.108,1.945,0.888,4.197,2.952,3.333
				c-0.166-2.27,2.611-3.412,4.074-1.651c0.665-1.764,2.689-0.933,2.55,0.76c0.907-0.028,1.698,0.571,1.892,1.392
				c0.501,2.109-2.415,1.96-2.266,4.576c0.081,1.423,1.376,2.691,3.067,2.771c-2.123,1.841-2.241,5.012,0.396,6.432
				c-2.032-1.43-4.802-0.866-6.036,1.029c-1.094,1.68-0.762,4.073,0.891,5.501C258.99,146.84,256.279,149.424,257.392,152.227z"/>
		</g>
		<g>
			<path style="fill:#C3E1E5;" d="M236.369,156.755c2.428,0.219,4.06-2.142,3.127-4.343c0.711-3.459-2.61-5.225-5.876-4.387
				c1.039-2.741-0.667-5.534-3.404-6.072c3.756,0.384,4.692-5.105,1.012-5.98c-1.802,0.189-2.641-2.128-1.126-3.129
				c-2.483-1.635-1.811-5.306,1.31-5.519c0.161-2.294,2.878-3.413,4.605-1.884c3.322,0.624,6.567-0.774,8.459-3.545
				c6.505-2.937,4.079-11.901-2.76-11.592c-3.059,0.138-5.663,2.541-6.072,5.704c-3.507-3.368-8.54-2.732-10.396-0.092
				c-1.355,1.928-1.111,5.057,0.736,7.544c-4.102,2.588-2.942,8.644,1.765,9.623c-3.057,0.648-4.388,4.114-1.673,6.109
				c-2.221,3.092,0.399,6.915,4.048,6.256c-2.842,0.896-4.394,4.017-3.404,6.808c0.987,2.785,4.146,4.233,6.915,3.15
				C233.101,157.081,235.365,158.2,236.369,156.755z"/>
			<path style="fill:#C3E1E5;" d="M261.379,151.225c-2.416-0.419-3.827,1.786-3.184,4.006c-3.458-1.921-7.493-1.939-10.957-0.215
				c0.099-2.043-2.772-2.084-2.849-0.1c-0.661-2.106-3.638-1.783-3.224,0.633c-1.75-0.241-2.818,1.803-1.591,3.09
				c-0.287,2.388,2.382,3.391,3.959,1.76c2.375,1.244,5.245,0.705,7.017-1.243c-0.717,3.494,2.331,6.182,5.715,5.349
				c2.809,1.763,6.413,0.191,6.944-3.113c3.886-0.497,5.813-4.839,2.443-7.466C266.365,151.273,263.495,149.245,261.379,151.225z"/>
			<path style="fill:#C3E1E5;" d="M270.755,130.631c7.836-3.231,5.247-14.754-3.369-13.98c-2.4-8.463-13.572-9.589-13.742,0.506
				c-1.472-0.742-3.149,0.032-3.542,1.272c-0.344,1.083,0.308,2.469,1.633,2.963c2.29,2.433,6.203,1.704,7.555-1.246
				c0.892,2.114,3.127,3.306,5.428,2.668c0.544,2.679,2.64,4.686,5.231,5.194c-2.306-0.06-2.479,3.289-0.12,3.368
				c-2.09,0.52-2.175,3.373-0.143,4.043c-3.145,1.82-3.045,5.777-0.276,7.912c-2.417-1.358-5.28,0.398-4.502,3.251
				c-1.587,2.656,1.056,4.943,3.681,3.898c2.457,1.457,4.765-1.977,2.385-3.653c3.182,0.768,5.005-2.56,3.245-5.081
				C279.136,138.172,276.724,130.847,270.755,130.631z"/>
		</g>
		<path style="fill:#E2FBFF;" d="M260.487,112.351c-1.964-0.289-4.055,1.411-3.912,2.689c0.236,2.112,6.124,2.813,6.845,0.733
			C263.839,114.569,262.308,112.619,260.487,112.351z"/>
		<path style="fill:#E2FBFF;" d="M267.164,118.97c0.26-0.729,4.086-1.104,5.719,1.104c1.645,2.224,0.126,5.799-0.602,5.819
			c-0.448,0.012-0.397-1.326-1.605-3.21C269.022,120.104,266.96,119.542,267.164,118.97z"/>
		<path style="fill:#E2FBFF;" d="M243.663,112.058c-2.018-0.749-4.369,0.069-5.694,1.595c-1.16,1.336-1.718,3.426-1.104,3.913
			c0.68,0.539,2.075-1.46,5.217-2.007c2.551-0.444,4.061,0.451,4.415-0.201C246.887,114.639,245.489,112.736,243.663,112.058z"/>
		<path style="fill:#E2FBFF;" d="M229.44,115.459c-0.27-0.388-3.813,0.457-4.214,2.709c-0.302,1.701,1.319,3.474,1.806,3.311
			c0.365-0.123-0.12-1.261,0.401-2.91C228.081,116.523,229.633,115.735,229.44,115.459z"/>
		<path style="fill:#E2FBFF;" d="M272.328,136.994c-2.634-1.059-4.934,2.758-2.678,4.425c1.315,0.972,3.776,0.16,4.192-1.514
			C274.115,138.81,273.484,137.459,272.328,136.994z"/>
		<path style="fill:#E2FBFF;" d="M230.018,148.458c-2.317,0.741-2.607,4.221,0,5.261c1.753,0.7,3.949-0.589,4.177-2.012
			C234.47,149.998,231.947,147.841,230.018,148.458z"/>
		<path style="fill:#E2FBFF;" d="M251.834,159.598c-0.224,0.586,4.068,4.289,7.891,2.975c2.917-1.003,4.436-4.539,3.993-4.971
			c-0.341-0.332-1.659,1.365-4.416,2.183C255.243,160.989,252.02,159.111,251.834,159.598z"/>
		<path style="fill:#E2FBFF;" d="M227.388,139.793c-0.353-0.028-1.453,2.167-0.464,3.404c0.683,0.855,2.129,0.957,2.321,0.619
			c0.16-0.28-0.635-0.702-1.238-2.012C227.451,140.599,227.596,139.809,227.388,139.793z"/>
	</g>
	<g>
		<g>
			<g>
				<path style="fill:#00C4D4;" d="M439.776,135.281c3.984-0.332,5.985-4.783,3.389-7.915c3.829-1.45,5.402-5.757,3.876-8.796
					c-1.252-2.493-4.466-3.883-7.603-2.981c0.678-3.538-2.889-6.263-6.112-4.621c-1.183-2.766-4.884-2.379-5.665,0.447
					c-0.543-7.123-7.268-11.422-13.864-9.541c-6.826-3.205-14.393,1.572-13.119,9.392c-4.69-7.514-15.489-6.691-18.187,2.087
					c-7.149-2.349-14.509,2.476-11.181,9.988c-8.46-0.784-12.779,9.343-3.727,12.522c-4.742,5.02-2.504,13.116,4.119,14.984
					c-2.789,2.912-3.182,7.085-1.396,9.631c2.262,3.224,8.109,3.969,11.983,0.171c-4.042,4.092-2.134,10.823,4.069,10.716
					c2.457,5.671,10.179,5.752,11.306-0.837c1.138,5.958,8.271,5.41,13.507,2.081c5.23,5.403,13.516,4.897,17.34,0.292
					c3.008-3.623,3.077-9.569-0.279-14.097c2.922,2.962,7.216,3.575,10.032,1.843c3.62-2.226,4.798-8.323,1.136-12.682
					C446.704,147.005,447.006,136.66,439.776,135.281z M413.051,155.69c-0.859-3.855-6.091-4.044-6.857,0
					c-2.531-3.357-7.63-3.111-9.839,0.447c3.944-4.651,2.009-11.56-4.323-12.522c-0.193,0.09-4.245,1.895-7.305-0.298
					c-3.117-2.234-3.096-7.105-1.193-10.137c2.021-3.221,6.358-4.674,10.435-3.28c-0.93-1.821-0.482-3.968,0.895-5.068
					c1.683-1.346,4.539-0.955,5.963,1.193c3.067,6.612,12.604,4.413,11.628-3.131c0.127,4.214,4.53,5.124,7.752,2.832
					c-3.601,4.101-0.571,10.292,5.069,8.945c2.001,4.197-0.066,9.292-4.919,10.435c2.656,2.172,3.161,6.063,1.193,8.795
					C419.636,156.555,415.937,157.355,413.051,155.69z"/>
			</g>
		</g>
		<g>
			<g>
				<path style="fill:#76CDDC;" d="M447.04,118.57c-1.252-2.493-4.466-3.883-7.603-2.981c1.261,2.213-1.371,4.329-3.305,2.754
					c-1.874,1.57-4.592-0.018-4.022-2.438c-2.726,0.696-5.168-1.759-4.45-4.49c-0.545-7.137-7.28-11.419-13.864-9.541
					c-6.826-3.205-14.393,1.572-13.119,9.392c-4.69-7.514-15.49-6.691-18.187,2.087c-7.162-2.353-14.504,2.487-11.181,9.988
					c-8.46-0.784-12.778,9.343-3.727,12.522c-4.742,5.02-2.504,13.117,4.119,14.984c1.897-3.6,7.236-2.542,7.634,1.501
					c1.544-2.042,4.736-0.361,3.9,2.072c-2.734,0.975-3.245,4.48-0.948,6.228c-2.996,3.899,0.031,9.374,4.97,8.763
					c2.371,3.746,7.307,4.609,10.405,1.116c4.056,3.23,9.664,3.226,13.728,0.103c3.733,4.308,10.338,4.708,14.504,0.975
					c4.068-3.645,4.492-10.05,0.853-14.26c2.851,3.318,7.91,3.488,10.848,0.609c2.755-2.7,2.901-7.354,0.122-10.36
					c7.121-0.797,7.593-10.803,0.609-12.31c3.56-0.741,5.866-4.26,4.838-7.918C446.993,125.915,448.567,121.609,447.04,118.57z
					 M431.524,136.596c-4.867,2.022-5.81,8.286-1.12,11.197c-3.323,0.149-5.658,3.129-4.581,6.413
					c-4.325-1.015-6.738,3.232-4.886,6.922c-1.417-4.805-8.321-3.986-8.55,1.018c-0.816-3.087-4.451-4.239-6.514-1.527
					c-1.781-4.844-7.785-6.087-11.4-2.443c2.252-1.912,2.449-5.287,0.611-7.329c-1.675-1.86-4.653-2.185-6.82-0.611
					c0.55-2.306-1.545-4.37-3.836-3.806c-2.95,0.51-5.179-2.445-3.9-5.152c-3.115-3.917-1.187-8.877,3.257-10.688
					c-2.476-3.176,0.907-6.29,4.254-4.809c-2.161-3.266,0.552-7.088,4.297-6.49c1.651-3.554,6.067-3.653,8.245-0.611
					c2.231,4.398,3.806,5.187,4.886,5.191c2.648,0.01,4.897-2.185,4.93-4.912c-0.159,3.422,3.991,5.068,6.165,2.368
					c1.951,2.785,5.873,3.049,7.329-0.305c0.344,4.108,3.029,7.612,7.227,8.652c-2.017,0.165-3.478,1.977-3.257,3.868
					C428.064,135.292,429.658,136.669,431.524,136.596z"/>
			</g>
		</g>
		<g>
			<g>
				<path style="fill:#C3E1E5;" d="M379.814,147.51c0.858,0.694,2.003,0.084,1.288-0.92c-0.012-1.387-1.477-2.235-2.682-1.549
					c0.986-1.744-0.337-3.797-2.322-3.664c2.289-0.887,2.483-3.858,0.413-5.108c2.751-0.764,4.38-3.523,2.322-5.728
					c3.039-0.295,4.384-3.873,1.496-5.573c1.768,1.3,4.263,0.705,5.263-1.238c0.391-1.157,0.903-1.972,1.287-2.492
					c0.542-0.732,1.485-2.968,3.607-3.202c1.572-0.173,1.176-1.526-0.243-1.397c-2.016-0.92-4.225,0.696-4.027,2.856
					c-7.024-1.969-13.867,3.243-10.514,10.495c-3.003,0.395-4.177,3.978-1.598,5.848c-5.246,2.096-6.191,8.841-0.502,11.015
					C375.328,148.43,377.872,149.146,379.814,147.51z"/>
				<path style="fill:#C3E1E5;" d="M424.663,157.685c0.994-0.637,0.353-2.12-0.802-1.739c-2.613-0.265-3.332,2.561-2.399,4.994
					c0.055,2.352-2.011,4.061-4.26,3.693c-1.971,1.021-4.405,0.454-5.692-1.423c-0.214-2.983-3.948-3.961-5.473-1.314
					c-2.335-3.951-7.245-5.626-11.563-3.722c2.765-5.005-2.768-9.921-7.485-6.896c0.812-2.055-1.031-4.153-3.175-3.612
					c-0.815-0.789-1.986,0.156-1.092,1.026c2.09,0.904,2.813,3.356,1.752,5.232c-2.119,8.772,6.837,13.863,14.009,9.396
					c-1.305,5.623,5.406,9.257,8.981,4.316C417.408,175.905,428.193,165.999,424.663,157.685z"/>
				<path style="fill:#C3E1E5;" d="M436.468,135.406c1.537-2.383,1.454-5.473-0.219-7.772c2.93-1.545,2.485-5.359-0.438-6.568
					c-2.476,1.182-5.143-0.595-5.145-3.284c-3.074,1.417-5.698-1.482-4.598-4.488c-1.643-8.348-12.741-9.715-16.42-2.08
					c-2.045-3.799-7.736-2.082-7.257,2.244c-1.54-0.048-2.565,0.846-2.553,1.482c0.012,0.619,1.017,1.432,2.472,1.404
					c0.543,4.41,6.757,4.9,7.843,0.493c-0.2,3.801,4.181,5.627,6.338,2.085c1.758,2.835,5.825,3.023,7.845,0.388
					c0.067,4.677,3.743,8.539,8.466,8.777c-3.946,1.804-3.557,7.416,0.621,8.622c-5.313,2.218-5.785,9.559-0.777,12.428
					c-2.704-0.521-5.41,0.832-4.789,3.538c-1.239,0.058-1.183,1.906,0.063,1.88c-0.655,1.091,0.737,1.666,1.284,0.658
					c0.837,1.983,3.324,1.355,3.541-0.648c3.775,0.249,4.899-4.336,1.787-6.179C439.925,146.026,441.271,139.236,436.468,135.406z"
					/>
			</g>
		</g>
		<path style="fill:#E2FBFF;" d="M424.125,114.147c1.504-5.964-5.84-8.286-8.768-3.325c-0.929-1.933-3.621-1.919-3.665,0.495
			c-1.282,0.686-1.81,1.967-1.494,2.695c0.358,0.825,1.984,1.366,3.516,0.438c-0.495,3.756,3.538,4.746,5.941,2.319
			c1.087,1.681,3.235,1.87,4.268,0.915C424.741,116.929,424.913,115.405,424.125,114.147z"/>
		<path style="fill:#E2FBFF;" d="M383.495,120.254c-0.121-0.416-3.359-0.594-5.47,1.295c-2.121,1.899-2.285,5.154-1.871,5.326
			c0.357,0.148,0.974-2.069,3.455-4.174C381.744,120.888,383.589,120.578,383.495,120.254z"/>
		<path style="fill:#E2FBFF;" d="M436.465,138.823c-1.228-0.938-3.946,0.027-5.038,1.871c-2.059,3.478,1.289,5.68,4.03,4.03
			C437.532,143.477,437.845,139.877,436.465,138.823z"/>
		<path style="fill:#E2FBFF;" d="M388.578,156.378c-1.054-0.331-2.015-0.042-2.238,0.448c-0.251,0.551,0.285,1.678,1.612,2.149
			c-1.176,3.323,2.742,6.119,5.503,3.931c0.739,0.301,1.571,0.163,2.108-0.349c1.263-1.206,0.138-3.274-0.895-3.85
			c-0.854-0.476-1.97-0.366-2.865,0.269C393.279,156.73,390.468,154.305,388.578,156.378z"/>
		<path style="fill:#E2FBFF;" d="M403.071,163.725c-1.178,0.041-2.107,0.813-2.246,1.704c-0.189,1.217,1.149,2.328,2.39,2.327
			C406.032,167.751,405.911,164.368,403.071,163.725z"/>
		<path style="fill:#E2FBFF;" d="M372.555,138.823c-0.991,0.122-1.698,1.649-1.583,2.879c0.162,1.74,2.004,3.247,3.023,2.879
			c0.868-0.314,1.125-1.986,0.864-3.167C374.594,140.218,373.614,138.693,372.555,138.823z"/>
		<path style="fill:#E2FBFF;" d="M426.401,120.255c-0.374,0.169-0.113,2.986,1.76,4.652c1.625,1.446,3.999,1.612,4.149,1.257
			c0.114-0.268-1.094-0.723-2.766-2.263C427.313,121.845,426.71,120.115,426.401,120.255z"/>
		<path style="fill:#E2FBFF;" d="M423.668,157.79c-0.691-0.312-1.759,0.596-1.668,1.193c0.095,0.624,1.489,1.139,2.012,0.629
			C424.447,159.187,424.268,158.06,423.668,157.79z"/>
		<path style="fill:#E2FBFF;" d="M432.185,150.559c-1.012-0.479-2.334,0.12-2.596,1.115c-0.508,1.929,2.508,3.096,3.476,1.4
			C433.574,152.183,433.084,150.984,432.185,150.559z"/>
		<path style="fill:#C3E1E5;" d="M390.421,109.767c-2.145-1.87-5.445-0.817-4.544,2.255c-0.62,1.091-0.442,2.284,0.137,2.712
			c0.678,0.501,2.216,0.183,2.977-1.25c1.752,1.131,4.021,0.575,4.744-1.489c0.032,0.826,0.565,1.511,1.244,1.679
			c2.536,0.628,3.204-4.214,0.128-5.613C393.441,107.303,391.339,108.015,390.421,109.767z"/>
		<path style="fill:#C3E1E5;" d="M370.848,125.82c-1.056-1.065-5.846,0.242-6.251,3.045c-0.243,1.687,1.125,3.754,2.564,3.847
			C369.502,132.863,371.775,126.756,370.848,125.82z"/>
		<path style="fill:#C3E1E5;" d="M441.529,117.485c0.52-0.714,3.111-0.367,4.167,1.122c1.743,2.456-1.376,7.055-2.094,6.875
			c-0.352-0.088,0.066-1.274-0.471-3.509C442.453,119.146,441.079,118.104,441.529,117.485z"/>
		<path style="fill:#C3E1E5;" d="M383.349,162.683c-0.579,0.146-0.972,1.927-0.321,3.206c1.116,2.191,4.912,2.156,5.129,1.603
			c0.11-0.28-0.742-0.571-2.244-2.084C384.18,163.662,383.836,162.56,383.349,162.683z"/>
		<path style="fill:#C3E1E5;" d="M402.384,108.703c-0.521-0.487,1.267-4.753,4.833-5.924c2.907-0.954,6.18,0.417,6.158,1.091
			c-0.016,0.504-1.865,0.388-4.91,1.559C404.404,106.991,402.789,109.083,402.384,108.703z"/>
		<path style="fill:#C3E1E5;" d="M420.233,103.247c-0.195-0.689-2.436-1.002-2.884-0.234c-0.289,0.496,0.117,1.531,0.857,1.793
			C419.245,105.174,420.397,103.829,420.233,103.247z"/>
	</g>
	<g>
		<g>
			<g>
				<g>
					<path style="fill:#00C4D4;" d="M136.362,257.673c4.731-0.394,7.106-5.678,4.023-9.398c3.698-3.883,1.119-10.228-4.237-10.445
						c-0.314-3.857-4.758-5.784-7.794-3.334c-1.9-3.092-6.297-3.418-8.622-0.599c5.882-9.508-5.139-20.1-14.325-13.346
						c-8.731-6.374-20.514,1.675-17.849,12.095c-0.916-6.02-6.282-9.906-11.247-9.15c-3.81,0.58-7.059,3.844-7.965,8.142
						c-8.508-2.795-17.218,2.959-13.275,11.859c-3.137,1.558-4.693,4.96-3.917,7.821c0.957,3.526,5.357,5.862,9.512,4.228
						c-12.333,2.158-18.465,15.802-5.13,20.609c-3.311,3.458-3.778,8.411-1.657,11.435c2.686,3.828,9.628,4.712,14.227,0.202
						c-4.799,4.858-2.533,12.851,4.831,12.724c2.918,6.733,12.085,6.829,13.423-0.994c4.451,4.064,10.36-0.008,9.183-5.576
						c-0.889,5.48,2.687,10.735,8.007,11.917c5.461,1.214,11.048-2.243,12.4-7.78c5.16-0.994,6.591-7.484,2.374-10.595
						c4.599,4.48,11.876,4.477,16.239,0.302c3.982-3.811,4.65-10.251,1.348-15.057C144.588,271.593,144.946,259.31,136.362,257.673z
						 M115.417,282.753c-2.301-7.075-10.271-10.434-12.761-2.552c-5.802-1.859-9.63,3.607-7.657,8.933
						c-2.445-7.979-10.92-11.092-18.121-7.657c3.802-2.7,5.001-7.412,3.401-10.549c-1.967-3.856-8.287-5.574-13.099-1.957
						c4.252-4.939,1.59-11.564-4.339-13.272c6.116,2.211,12.74-1.157,13.782-7.912c7.19,5.048,13.2-2.15,11.996-10.209
						c2.109,7.717,10.471,11.71,15.058,4.339c-0.387,5.541,5.387,7.547,9.451,4.411c-4.276,4.87-0.678,12.219,6.018,10.62
						c-2.523,6.579,1.538,13.196,8.012,14.575c-4.748-1.062-9.328,0.817-11.23,4.339
						C114.334,278.812,115.162,281.91,115.417,282.753z"/>
				</g>
			</g>
		</g>
		<g>
			<g>
				<g>
					<path style="fill:#76CDDC;" d="M136.362,257.673c4.731-0.394,7.106-5.678,4.023-9.398c3.698-3.883,1.119-10.229-4.237-10.445
						c-0.314-3.857-4.759-5.783-7.794-3.334c-1.897-3.087-6.292-3.423-8.622-0.599c5.882-9.508-5.139-20.1-14.325-13.346
						c-8.288-6.05-19.67,0.906-18.062,11.04c-2.616-10.523-16.633-11.18-18.999,0.047c-8.504-2.794-17.22,2.953-13.275,11.859
						c-3.137,1.558-4.693,4.96-3.917,7.821c0.801,2.951,4.014,5.058,7.475,4.713c-10.862,3.157-15.717,15.574-3.094,20.124
						c-3.311,3.458-3.778,8.411-1.657,11.435c2.686,3.828,9.628,4.712,14.227,0.202c-4.799,4.858-2.533,12.85,4.831,12.724
						c2.918,6.733,12.085,6.829,13.423-0.994c3.279,2.994,8.033,1.699,9.128-2.636c1.42,11.632,17.728,12.39,20.462,1.196
						c4.669-0.899,6.482-6.473,3.134-9.924c4.609,3.79,11.348,3.584,15.478-0.369c3.982-3.811,4.65-10.251,1.348-15.057
						C144.588,271.593,144.946,259.31,136.362,257.673z M116.587,285.991c-6.945-5.121-16.895-3.408-21.368,4.499
						c-5.61-5.278-13.499-7.145-20.868-3.874c1.555-2.948-1.01-6.214-4.249-4.998c2.567-4.401-3.116-8.802-6.748-5.248
						c1.04-4.36-0.719-8.761-4.282-11.259c4.244-1.029,5.024-5.631,2.4-8.87c7.012-2.841,12.442-8.634,14.378-16.359
						c4.769,1.855,9.886-0.256,12.14-4.618c3.736,4.204,10.176,4.507,14.101,0.119c1.9,5.561,7.379,8.883,13.246,7.622
						c0.448,6.78,6.177,11.859,12.871,11.621c-3.019,3.85-1.879,9.558,2.733,11.758c-3.138,1.587-3.63,5.266-1.608,7.985
						C123.13,275.624,118.342,280.163,116.587,285.991z"/>
				</g>
			</g>
		</g>
		<g>
			<g>
				<g>
					<path style="fill:#C3E1E5;" d="M59.779,248.318c3.565,2.994,8.824,0.789,9.265-3.829c3.932,1.774,6.344-2.19,4.843-5.811
						c3.332,1.278,6.913-0.485,7.484-4.138c0.914-0.217,1.44-1.035,1.321-1.673c-0.137-0.733-1.153-1.366-2.201-0.969
						c-1.036-6.12-8.24-4.558-8.46,1.031c-2.937-1.441-6.313,0.525-6.596,3.723c-4.537-1.375-9.114,2.26-8.717,7.044
						c-2.084,1.988-2.109,4.542-1.145,5.371C56.379,249.761,58.203,249.526,59.779,248.318z"/>
					<path style="fill:#C3E1E5;" d="M66.804,279.919c-0.411-2.541-2.883-3.7-5.233-2.85c2.081-3.983-0.884-8.805-5.441-8.653
						c1.414-1.618,1.441-4.029-0.434-5.39c0.195-1.14-0.645-2.057-1.426-2.067c-0.752-0.01-1.589,0.821-1.497,1.924
						c-2.943-0.385-4.257,3.398-1.499,4.747c-1.675,2.856,1.069,5.374,3.994,4.376c-0.064,2.04,1.066,3.899,3.158,4.374
						c-2.42,1.897-0.726,5.646,2.331,4.892c-0.142,1.124,0.619,2.084,1.497,2.21c0.985,0.141,2.098-0.775,2.067-2.067
						c0.59,1.045,1.841,1.22,2.432,0.732C67.263,281.726,67.388,280.72,66.804,279.919z"/>
					<path style="fill:#C3E1E5;" d="M89.2,290.924c-2.69-4.27-8.194-4.814-11.855-1.635c-0.786-2.893-4.655-2.125-4.565,0.75
						c-1.344-0.626-2.786,0.116-3.066,1.158c-0.233,0.866,0.326,1.977,1.427,2.412c-1.477,0.824-1.816,2.724-0.95,3.856
						c0.804,1.051,2.532,1.292,3.745,0.307c0.916,7.083,11.006,7.123,11.857-0.035c2.786,2.407,6.973,0.607,6.404-3.27
						C93.239,292.382,91.374,290.32,89.2,290.924z"/>
					<path style="fill:#C3E1E5;" d="M114.516,289.514c-0.221-2.783-2.655-4.871-5.349-4.694c-2.573,0.17-4.66,2.359-4.694,5.021
						c-2.047-2.607-6.024-0.166-4.476,2.838c-3.8,0.776-2.739,6.386,1.092,5.68c0.194,3.532,5.488,3.187,5.239-0.331
						c1.513,4.098,7.041,2.256,6.222-1.856c2.708,1.487,5.041-1.503,3.384-3.93C118.364,291.121,116.746,288.686,114.516,289.514z"
						/>
					<path style="fill:#C3E1E5;" d="M134.66,277.434c0.615-2.264-2.196-3.567-3.594-1.738c-2.088-0.6-3.536,1.371-2.759,3.286
						c-3.41,0.022-4.769,3.364-3.791,6.516c-0.981,1.661,1.485,2.926,2.315,1.233c2.166,0.577,4.08-1.512,3.32-3.619
						C133.845,284.707,137.272,280.731,134.66,277.434z"/>
					<path style="fill:#C3E1E5;" d="M112.637,233.964c2.612,2.417,6.192-1.381,3.596-3.83c1.076-7.01-6.575-9.6-11.176-5
						c-2.776-6.726-12.388-5.136-11.764,2.549c-1.283,0.435-1.877,1.849-1.423,2.919c0.474,1.116,2.002,1.658,3.215,0.93
						c-0.382,4.203,5.083,6.128,7.423,2.621C103.923,239.703,111.522,239.728,112.637,233.964z"/>
					<path style="fill:#C3E1E5;" d="M134.71,239.629c-0.705-3.304-4.177-4.857-7.095-3.493c-1.629-3.751-7.127-2.953-7.641,1.092
						c-2.743,0.829-2.777,4.503-0.109,5.458c-2.506,4.166,0.846,9.248,5.675,8.491c0.883,3.39,5.122,4.056,7.096,1.224
						c-0.105,4.266,4.846,3.979,5.651,0.318c2.197-1.054,2.012-4.007-0.193-4.903C141.886,244.979,139.399,238.963,134.71,239.629z"
						/>
				</g>
			</g>
		</g>
		<path style="fill:#E2FBFF;" d="M95.137,226.697c-0.611-0.454-0.146-3.049,1.492-4.073c2.363-1.476,6.082,0.993,5.946,1.699
			c-0.079,0.412-1.435,0.039-3.822,0.85C96.416,225.966,95.599,227.041,95.137,226.697z"/>
		<path style="fill:#E2FBFF;" d="M59.279,247.097c-1.322-0.48-1.879-4.337-0.091-6.989c1.472-2.182,4.31-3.222,7.094-2.527
			c0.968-2.71,3.774-4.294,6.623-3.654c2.12-3.643,6.295-1.901,6.319-0.685c0.027,1.368-4.704,1.295-9.564,4.035
			C62.665,241.22,61.123,247.766,59.279,247.097z"/>
		<path style="fill:#E2FBFF;" d="M121.245,238.723c0.063-1.211,3.904-2.879,5.938,0.381c2.344-1.908,5.58,0.392,4.609,3.235
			c2.03-1.01,4.462-0.204,5.44,1.637c1.057,1.992,0.139,4.681-2.132,5.633c0.801,1.547-0.187,1.991-1.827,1.446
			c-2.553-0.848-1.799-4.679-4.415-7.765C125.913,239.818,121.168,240.202,121.245,238.723z"/>
		<path style="fill:#E2FBFF;" d="M133.197,278.613c-0.253-0.054-0.377,0.409-1.281,1.382c-1.119,1.205-1.764,1.396-1.688,1.739
			c0.12,0.544,1.973,1.085,2.969,0.228C134.335,280.984,133.725,278.725,133.197,278.613z"/>
		<path style="fill:#E2FBFF;" d="M110.435,288.434c-1.355-1.079-3.272-0.7-4.035,0.533c-0.643,1.039-0.394,2.568,0.709,3.477
			c1.137,4.156,5.496,2.227,4.924-1.498C113.659,289.807,112.126,287.486,110.435,288.434z"/>
		<path style="fill:#E2FBFF;" d="M100.387,293.915c-1.948,0.371-2.146,2.592,0.152,2.664c0.98,0.031,2.094-0.696,2.055-1.446
			C102.556,294.383,101.373,293.727,100.387,293.915z"/>
		<path style="fill:#E2FBFF;" d="M74.732,297.112c-0.645,1.078,4.266,5.402,7.725,3.389c1.814-1.055,2.632-3.536,2.019-4.15
			c-0.587-0.588-2.01,1.01-5.024,1.218C76.659,297.761,75.049,296.583,74.732,297.112z"/>
		<path style="fill:#E2FBFF;" d="M112.697,224.438c-2.471-1.396-5.828,0.82-5.729,1.33c0.081,0.417,2.442-0.436,4.678,0.922
			c2.122,1.289,2.493,3.575,2.853,3.454C114.964,229.987,115.215,225.861,112.697,224.438z"/>
		<path style="fill:#E2FBFF;" d="M60.332,277.821c-0.669-0.075-1.447,0.369-1.531,0.957c-0.184,1.288,2.41,1.976,2.871,0.766
			C61.914,278.904,61.205,277.919,60.332,277.821z"/>
		<path style="fill:#E2FBFF;" d="M53.697,263.978c-0.692-0.399-2.281,0.146-2.488,1.276c-0.141,0.773,0.392,1.667,1.34,2.041
			c-0.955,1.217-0.845,2.843,0.064,3.7c1.081,1.02,3.045,0.718,3.381,0c0.294-0.628-0.854-1.148-1.531-2.998
			C53.669,265.825,54.478,264.428,53.697,263.978z"/>
	</g>
	<g>
		<g>
			<g>
				<g>
					<g>
						<path style="fill:#00C4D4;" d="M204.239,245.299c2.576,3.126,7.09,3.859,10.459,1.199c4.868,2.222,10.34-0.727,10.65-6.253
							c5.223,3.667,10.029,0.938,11.638-4.513c4.666-4.038,2.744-11.408-3.451-12.366c-0.455-4.31-4.205-7.563-8.498-7.413
							c-4.35,0.152-7.891,3.75-7.965,8.142c-8.489-2.789-17.226,2.94-13.275,11.859
							C198.075,236.767,198.471,245.043,204.239,245.299z"/>
						<path style="fill:#00C4D4;" d="M216.035,288.018c4.983,0.99,9.522-2.889,9.444-7.878c3.112-2.162,0.462-6.873-2.998-5.291
							c-1.089-3.148-4.286-4.929-7.486-4.303c3.555-2.908,2.778-8.367-1.598-9.984c-1.641-4.273-7.072-4.284-9.083-0.353
							c-10.184,1.737-11.797,15.163-0.96,17.519c-5.289,1.587-5.628,8.682-0.098,10.26
							C205.909,293.645,212.482,292.73,216.035,288.018z"/>
						<path style="fill:#00C4D4;" d="M245.124,299.31c2.285-1.542,0.939-5.032-1.786-4.663c-1.683-4.397-7.123-5.062-10.021-1.488
							c-4.662-0.829-8.864,2.519-8.434,7.441c-2.274,0.359-3.779,2.535-3.374,4.663c0.376,1.971,2.295,3.404,4.408,3.172
							c3.011,6.441,11.761,6.834,13.833-0.576c2.334,2.368,6.194,1.986,6.663-1.604C249.076,304.163,248.207,300.374,245.124,299.31
							z"/>
						<path style="fill:#00C4D4;" d="M261.79,237.079c1.421,3.57,5.639,5.083,9.002,3.258c-3.443,5.009,0.674,11.455,6.732,9.927
							c-2.625,4.073,0.878,9.269,5.655,8.312c1.424,5.926,8.305,8.238,13.065,4.463c7.58-2.115,5.624-11-1.504-12.05
							c4.731-0.394,7.106-5.678,4.023-9.398c3.698-3.883,1.119-10.228-4.237-10.445c-0.314-3.856-4.758-5.784-7.794-3.334
							c-0.302-3.01-3.161-4.942-6.023-3.596c2.84-10.266-9.142-17.404-16.924-10.35c-6.209-4.173-14.387-2.881-15.908,4.783
							c-3.003,1.878-2.558,5.577-0.061,7.919c-3.969,2.037-3.028,7.178,1.029,8.32C251.865,239.199,257.496,240.6,261.79,237.079z"
							/>
						<path style="fill:#00C4D4;" d="M287.684,279.178c-5.038-0.089-8.229,5.067-5.973,9.556c-2.103-5.183-8.798-6.566-12.761-2.552
							c-1.998-1.314-4.603,0.331-4.283,2.695c-4.748,1.736-4.991,7.099-2.116,11.126c-2.533,1.22-3.217,4.159-2.083,5.812
							c0.859,1.252,2.791,1.807,4.633,1.158c3.896,9.796,15.87,6.784,17.145-2.911c3.444-1.168,5.653-4.379,5.15-8.091
							c10.595,5.326,21.191-6.674,14.692-16.542c0.083-4.042-5.551-5.083-6.906-1.257
							C293.365,274.47,288.181,274.77,287.684,279.178z"/>
					</g>
				</g>
			</g>
			<g>
				<g>
					<g>
						<path style="fill:#76CDDC;" d="M210.318,286.079c0.231,3.122,4.528,3.483,5.107,0.323c2.158,0.822,4.162-1.307,2.493-3.21
							c2.567-4.401-3.116-8.802-6.748-5.248c1.04-4.36-0.719-8.761-4.282-11.259c2.803,0.313,4.398-2.923,2.011-4.712
							c0.241-2.508-2.694-2.538-3.263-0.353c-5.304,0.193-8.834,4.726-8.202,8.643c0.476,2.951,3.31,5.519,6.967,5.997
							C201.57,280.979,204.574,286.768,210.318,286.079z"/>
						<path style="fill:#76CDDC;" d="M260.47,228.699c1.9,5.561,7.379,8.883,13.246,7.622c0.448,6.78,6.177,11.859,12.871,11.621
							c-2.602,0.399-4.137,2.898-3.57,4.954c0.458,1.661,2.254,2.909,4.301,2.759c-1.175,1.06-1.401,2.704-0.73,3.733
							c0.828,1.269,3.04,1.626,4.545,0.243c0.41,1.943,2.188,2.836,3.223,2.441c0.915-0.349,1.59-1.837,1.078-3.415
							c2.956-2.164,1.192-5.687-2.11-6.898c4.164-1.41,5.697-6.257,2.597-9.576c4.677-2.419,2.629-9.336-2.678-8.602
							c2.549-4.46-2.303-9.22-6.508-5.77c-1.9-3.092-6.296-3.418-8.622-0.599c3.048-4.523,1.892-10.551-2.181-13.411
							c-3.564-2.502-8.712-2.121-12.147,1.114c-6.118-3.82-14.126-2.775-13.877,4.626c-3.015,2.62-1.071,7.535,2.922,7.386
							C252.01,231.812,259.067,233.429,260.47,228.699z"/>
						<path style="fill:#76CDDC;" d="M291.593,284.245c-3.853-0.656-7.63,1.19-9.031,5.036c-3.125-1.519-6.545,0.287-7.328,3.505
							c-2.225-3.664-7.665-1.53-6.08,2.751c-5.184,0.228-5.976,7.496-0.933,8.801c0.798,2.976,3.46,4.941,6.144,4.807
							c3.266-0.163,6.101-3.411,5.646-7.238c4.134,0.173,6.964-4.023,5.368-7.769c5.684,2.213,11.776-0.908,11.957-7.296
							c0.84-1.669,0.501-3.524-0.533-4.334C295.492,281.479,292.812,281.943,291.593,284.245z"/>
						<path style="fill:#76CDDC;" d="M243.933,302.485c0.997-1.54,0.457-3.571-1.488-3.274c0.699-1.616-0.844-3.198-2.48-2.58
							c-1.254-3.703-6.792-2.612-6.548,1.29c-2.909-3.025-7.75-0.325-6.391,3.759c-1.954,0.298-2.967,2.139-2.539,3.385
							c0.348,1.013,1.694,1.765,3.175,1.488c1.118,6.683,10.684,6.367,11.311-0.397c1.405,1.334,3.618,0.991,4.465-0.794
							C245.201,305.411,245.66,303.017,243.933,302.485z"/>
						<path style="fill:#76CDDC;" d="M205.541,243.741c1.374,3.448,5.428,3.248,7.295,0.325c3.436,1.775,7.442-0.457,7.58-4.373
							c3.325-0.668,5.309-4.137,4.16-7.354c3.313,2.876,8.378,0.972,7.359-3.766c1.596-0.353,2.618-1.917,2.329-3.457
							c-0.305-1.62-1.967-2.721-3.644-2.332c-3.311-6.131-10.561-4.438-13.547,1.312c-8.489-2.789-17.226,2.94-13.275,11.859
							C200.233,238.593,200.615,243.902,205.541,243.741z"/>
					</g>
				</g>
			</g>
		</g>
		<path style="fill:#C3E1E5;" d="M272.893,216.662c-3.533-2.416-8.744-0.324-8.75,0.515c-0.006,0.726,3.891,0.214,7.463,3.088
			c2.939,2.365,3.458,5.25,3.978,5.07C276.301,225.086,276.559,219.17,272.893,216.662z"/>
		<path style="fill:#C3E1E5;" d="M289.187,232.91c-0.79-2.497-4.061-2.954-5.517-0.788c-1.742,0.385-2.739,2.06-2.414,3.431
			c0.357,1.506,2.296,2.586,4.124,1.824c-1.193,1.647-0.091,3.876,2.033,3.577c-0.943,1.49,0.338,3.051,1.976,2.752
			c0.34,1.235,1.65,1.782,2.532,1.371c0.754-0.351,1.193-1.402,0.816-2.401c1.288-2.552,0.719-5.583-2.038-6.746
			C291.723,234.647,290.896,232.803,289.187,232.91z"/>
		<path style="fill:#C3E1E5;" d="M208.097,239.232c-2.217-0.027-4.355-5.851,0.087-7.835c-0.751-3.27,2.162-6.126,5.219-4.045
			c3.948-3.997,8.327-0.634,7.959,1.174c-0.36,1.767-4.475,0.757-7.959,3.392C209.671,234.742,209.959,239.255,208.097,239.232z"/>
		<path style="fill:#C3E1E5;" d="M203.357,264.929c-0.608-0.401-2.927,1.059-3.523,3.262c-1.276,4.724,4.87,7.162,5.61,6.002
			c0.415-0.651-1.935-1.829-2.479-4.567C202.459,267.08,203.939,265.314,203.357,264.929z"/>
		<path style="fill:#C3E1E5;" d="M233.601,305.005c-2.051-0.566-4.663,0.586-4.841,2.105c-0.135,1.148,1.146,2.288,2.245,2.736
			c2.159,0.881,5.165-0.273,5.402-1.824C236.593,306.812,235.085,305.414,233.601,305.005z"/>
		<path style="fill:#C3E1E5;" d="M268.141,298.806c-0.955,1.418-0.066,4.804,2.227,5.442c1.526,0.425,3.406-0.443,4.443-2.217
			c3.238,0.512,6.337-1.306,6.856-4.728c2.87-0.653,2.506-3.534,1.482-4.008c-1.283-0.594-2.66,2.68-6.14,4.257
			C272.729,299.489,269.346,297.017,268.141,298.806z"/>
		<path style="fill:#C3E1E5;" d="M294.983,286.998c-0.338-0.227-1.111,1.253-3.553,2.515c-2.381,1.231-3.97,1.025-4.045,1.64
			c-0.091,0.739,2.069,2.134,3.991,1.749C294.451,292.285,295.551,287.379,294.983,286.998z"/>
	</g>
	<g>
		<g>
			<g>
				<g>
					<g>
						<path style="fill:#00C4D4;" d="M387.701,213.965c-0.021-2.318-5.625-4.876-10.268-4.42c-5.605,0.55-7.28,4.182-8.144,5.182
							c-0.44-0.085-5.886-1.041-9.945,3.033c-4.251,4.266-4.566,9.928-4.485,10.266c-5.192,0.85-6.124,7.778-1.277,9.909
							c-0.599,2.248-0.406,2.849-0.137,2.998c1.488,0.82,6.292-11.577,17.93-19.033
							C380.109,216.303,387.725,216.673,387.701,213.965z"/>
						<path style="fill:#00C4D4;" d="M351.921,257.978c-0.541-0.061-1.324,1.086-1.426,2.139c-0.124,1.281,0.772,2.311,1.135,2.687
							c-7.249,3.276-7.584,13.268-0.511,16.966c-4.722,1.686-3.795,8.481,1.221,8.794c-1.346,7.462,7.096,7.332,8.962,4.472
							c1.83-2.805-3.784-6.554-6.799-15.914C351.288,267.142,353.399,258.145,351.921,257.978z"/>
						<path style="fill:#00C4D4;" d="M375.68,307.067c-1.566,0.728-2.701,2.836-2.203,4.522c0.524,1.777,2.861,3.089,5.631,2.653
							c3.114,5.847,10.836,6.84,14.015,0.472c3.721,3.386,7.052-0.365,6.36-2.068c-0.788-1.939-6.075,0.653-12.875-1.271
							C380.53,309.656,378.422,305.792,375.68,307.067z"/>
						<path style="fill:#00C4D4;" d="M457.601,244.617c2.558-2.813,2.688-7.018,0.361-9.984c2.036-4.058-0.467-8.658-4.689-9.458
							c-0.147-3.428-3.584-5.739-6.842-4.445c-0.629-2.67-3.344-4.317-6.023-3.596c-0.892-8.268-9.57-12.952-16.939-9.444
							c-10.962-6.574-17.081,1.285-16.3,3.621c0.699,2.089,5.568,2.139,7.641,2.253c12.911,0.71,25.645,9.851,30.863,15.27
							c10.824,11.241,10.182,28.17,11.941,27.802C458.615,256.427,459.112,249.498,457.601,244.617z"/>
						<path style="fill:#00C4D4;" d="M460.36,283.661c7.521-4.449,2.244-11.291-1.768-11.151c-5.386,0.189-4.281,13.47-13.799,23.2
							c-10.399,10.632-24.855,8.207-25.068,12.901c-0.162,3.579,8.05,9.139,13.645,6.34c4.618-2.31,4.881-9.029,4.89-9.37
							c5.3,2.762,11.451-0.929,10.686-7.135C458.063,301.422,465.73,291.78,460.36,283.661z"/>
					</g>
				</g>
			</g>
		</g>
		<g>
			<g>
				<g>
					<g>
						<path style="fill:#76CDDC;" d="M387.701,213.965c-4.727-5.094-11.116-5.592-15.326-2.624c-1.85,1.304-2.662,2.894-3.087,3.385
							c-0.44-0.085-5.886-1.041-9.945,3.033c-4.251,4.266-4.566,9.928-4.485,10.266c-5.192,0.85-6.125,7.778-1.277,9.909
							c-1.534-2.54,0.199-5.732,3.302-4.655c-0.253-1.126,1.143-11.841,10.037-12.884c0.627-1.045,2.486-6.568,9.135-8.409
							C381.744,210.41,386.687,213.336,387.701,213.965z"/>
						<path style="fill:#76CDDC;" d="M351.118,279.77c-4.722,1.686-3.795,8.481,1.221,8.794c-1.814,5.922,5.247,7.863,8.136,3.098
							c-4.042,0.061-6.8-3.745-4.691-7.421c-3.081-0.648-4.203-4.354-2.016-6.595c-3.471-1.488-4.59-5.225-3.287-8.525
							C344.951,271.218,346.226,277.454,351.118,279.77z"/>
						<path style="fill:#76CDDC;" d="M376.466,308.361c-3.628,2.245-1.105,6.107,2.642,5.881c3.114,5.847,10.836,6.84,14.015,0.472
							c2.173,2.65,6.288,1.492,6.36-2.068c-1.643,1.925-4.377,2.143-6.319,0.707c-3.766,4.712-11.186,3.418-13.169-2.238
							C378.078,312.397,375.698,310.528,376.466,308.361z"/>
						<path style="fill:#76CDDC;" d="M457.601,244.616c2.558-2.813,2.688-7.018,0.361-9.984c2.01-4.006-0.405-8.646-4.689-9.458
							c-0.147-3.422-3.577-5.742-6.842-4.445c-0.63-2.675-3.35-4.315-6.023-3.596c-0.892-8.268-9.569-12.952-16.939-9.444
							c-3.931-2.663-9.034-2.463-11.511,1.811c4.167-1.953,9.115-0.938,12.112,2.728c3.011-2.819,7.883-1.304,8.801,2.679
							c3.077-0.084,5.934,1.736,7.127,4.636c3.148,0.311,5.586,2.951,5.427,6.253c9.902,7.173,13.429,18.926,12.188,30.84
							C458.812,252.797,458.862,248.62,457.601,244.616z"/>
						<path style="fill:#76CDDC;" d="M460.36,283.661c4.545-2.295,3.854-8.78-1.247-9.802c1.038,9.465-3.866,18.674-12.918,22.778
							c0.813,5.67-4.319,9.322-9.524,7.72c-2.78,5.632-9.216,7.72-14.689,5.391c4.459,8.557,16.196,5.199,16.279-4.166
							c5.3,2.762,11.451-0.929,10.686-7.135C458.063,301.422,465.73,291.78,460.36,283.661z"/>
					</g>
				</g>
			</g>
		</g>
		<path style="fill:#C3E1E5;" d="M364.341,216.66c-0.793-0.816-5.14,1.356-4.98,2.716c0.088,0.746,1.543,1.352,2.716,1.132
			C364.138,220.122,364.931,217.266,364.341,216.66z"/>
		<path style="fill:#C3E1E5;" d="M350.759,282.079c-0.532,0.019-1.078,1.221-0.905,2.264c0.255,1.541,2.02,2.371,2.49,2.037
			C353.057,285.875,351.722,282.046,350.759,282.079z"/>
		<path style="fill:#C3E1E5;" d="M451.718,226.167c0.581-0.545,2.663,0.218,3.622,1.811c1.135,1.885,0.355,4.368-0.453,4.527
			C453.568,232.766,450.7,227.121,451.718,226.167z"/>
		<path style="fill:#C3E1E5;" d="M426.365,208.737c0.017,0.263,2.61-0.421,5.206,1.132c1.878,1.123,2.549,2.694,2.943,2.49
			c0.418-0.217,0.239-2.29-0.966-3.504C431.268,206.557,426.342,208.373,426.365,208.737z"/>
		<path style="fill:#C3E1E5;" d="M459.414,286.607c-0.536-0.141-0.963,2.353-3.622,5.433c-2.394,2.773-4.451,3.535-4.235,4.007
			c0.286,0.625,4.372,0.354,6.635-2.265C460.544,291.063,460.092,286.785,459.414,286.607z"/>
	</g>
</g>
</svg>
